<svg xmlns="http://www.w3.org/2000/svg" viewBox="0 0 321.11 321.11">
  <defs>
    <style>
      .cls-1 {
        fill: #e5e7eb;
      }

      .cls-2 {
        fill: #202a38;
      }
    </style>
  </defs>
  <g id="Layer_2" data-name="Layer 2">
    <g id="focuskeep-logo">
      <g id="focuskeep-logo-2" data-name="focuskeep-logo">
        <circle class="cls-1" cx="160.55" cy="160.55" r="160.55"/>
        <path class="cls-2" d="M96.58,270.71l15.86-27.33c34.39,17.78,68.35,17.68,101.08-3.48,22.86-14.77,36.66-36.33,41.24-63.18,5-29-2.11-55.32-21.06-77.88s-43.65-33.47-73.11-34.26V32.8A127.84,127.84,0,0,1,266.8,89.73a124.34,124.34,0,0,1,14.93,30.73A127.56,127.56,0,0,1,183.89,285.8a125.41,125.41,0,0,1-31.19,1.9,127.65,127.65,0,0,1-56.12-17Z"/>
        <path class="cls-2" d="M141.36,180.47a11.19,11.19,0,0,1,1-1.27q29-29.05,58.07-58.08c3.26-3.26,6.73-3.28,10-.05,2.76,2.76,5.53,5.51,8.27,8.27,2.93,3,2.94,6.55,0,9.49q-36.4,36.42-72.83,72.83c-2.93,2.93-6.56,2.92-9.5,0q-20.46-20.43-40.89-40.88c-3-3-3-6.55.06-9.59l8.45-8.45c2.88-2.87,6.52-2.89,9.4,0q13.28,13.23,26.5,26.5a10.26,10.26,0,0,1,.94,1.3Z"/>
      </g>
    </g>
  </g>
</svg>
