<?xml version="1.0" standalone="no"?>
<!DOCTYPE svg PUBLIC "-//W3C//DTD SVG 20010904//EN"
 "http://www.w3.org/TR/2001/REC-SVG-20010904/DTD/svg10.dtd">
<svg version="1.0"
    xmlns="http://www.w3.org/2000/svg" width="700.000000pt" height="700.000000pt" viewBox="0 0 700.000000 700.000000" preserveAspectRatio="xMidYMid meet">
    <g transform="translate(0.000000,700.000000) scale(0.100000,-0.100000)" fill="#000000" stroke="none">
        <path d="M3500 5937 l0 -344 108 -7 c450 -27 860 -182 1192 -449 169 -136 366
-362 490 -562 207 -332 317 -753 296 -1130 -38 -676 -313 -1217 -809 -1589
-417 -313 -934 -475 -1399 -437 -293 24 -598 110 -859 241 -51 26 -64 29 -74
18 -13 -15 -321 -544 -330 -569 -4 -12 28 -32 147 -92 287 -142 581 -231 904
-273 156 -20 493 -23 639 -5 661 81 1237 365 1690 833 220 227 359 425 500
713 130 265 211 524 256 816 19 119 23 188 23 394 1 263 -6 342 -51 565 -234
1169 -1212 2066 -2403 2204 -74 9 -177 16 -227 16 l-93 0 0 -343z"/>
        <path d="M4415 4391 c-16 -10 -324 -313 -683 -673 l-653 -654 -307 308 c-338
340 -363 360 -435 338 -57 -17 -269 -224 -293 -286 -31 -81 -36 -74 460 -573
248 -249 471 -466 495 -482 48 -31 82 -36 128 -19 32 12 1646 1620 1669 1662
18 35 18 91 0 126 -17 32 -232 245 -263 261 -33 17 -84 13 -118 -8z"/>
    </g>
</svg>
